<?xml version="1.0" encoding="utf-8"?>
<!-- Generator: Adobe Illustrator 21.1.0, SVG Export Plug-In . SVG Version: 6.00 Build 0)  -->
<svg version="1.1" id="Capa_1" xmlns="http://www.w3.org/2000/svg" xmlns:xlink="http://www.w3.org/1999/xlink" x="0px" y="0px"
	 viewBox="0 0 894 373" style="enable-background:new 0 0 894 373;" xml:space="preserve">
<style type="text/css">
	.st0{fill:#F9F9F9;}
	.st1{fill:url(#SVGID_1_);}
	.st2{fill:url(#SVGID_2_);}
	.st3{fill:#FCE93A;}
	.st4{fill:#7620AD;}
	.st5{fill:#FFFFFF;}
	.st6{fill:#212121;}
	.st7{fill:url(#SVGID_3_);}
	.st8{fill:url(#SVGID_4_);}
	.st9{fill:url(#SVGID_5_);}
	.st10{fill:url(#SVGID_6_);}
	.st11{fill:url(#SVGID_7_);}
	.st12{fill:url(#SVGID_8_);}
	.st13{fill:url(#SVGID_9_);}
</style>
<g>
	<g>
		<path class="st4" d="M151.6,153.3c11.2,0,19.1,4,23.4,6.9c2.9,2,3.1,4.8,1.2,7.8l-2.5,4.2c-1.9,3.2-4.5,3.5-7.6,1.5
			c-3.4-1.9-8.2-4.1-13.6-4.1c-14.6,0-20.6,10.3-20.6,20.8c0,10.8,6.5,21.9,20.6,21.9c6.1,0,11.4-2.8,14.9-5.2c3.1-2.1,5.7-2,7.9,1
			l2.9,4c1.9,2.9,1.8,5.7-0.9,7.9c-4.6,3.6-13.2,8.7-25.5,8.7c-23.5,0-38.2-16.2-38.2-37.8C113.3,169.6,129.1,153.3,151.6,153.3z"/>
		<path class="st4" d="M212.4,173.7c16.6,0,29.9,11.1,29.9,27.6c0,16.4-13.3,27.3-29.8,27.3s-29.8-10.9-29.8-27.3
			C182.8,184.8,196,173.7,212.4,173.7z M212.5,214c6.4,0,11.9-4.8,11.9-12.6c0-8-5.5-13-11.9-13s-11.9,5-11.9,13
			C200.6,209.2,206.1,214,212.5,214z"/>
		<path class="st4" d="M250,180.5c0-3.7,1.9-5.6,5.6-5.6h5.7c3.7,0,5.5,1.9,5.5,5.6v0.9c0,0.5-0.1,1.3-0.1,1.3h0.2
			c2.4-3.7,7.3-9.1,15.6-9.1c6.6,0,11.9,3,14.7,8.9h0.2c2.8-4.4,9-8.9,16.8-8.9c9.6,0,17,5.2,17,19.7v28.5c0,3.7-1.9,5.6-5.6,5.6
			h-6.4c-3.7,0-5.6-1.9-5.6-5.6v-25.5c0-3.9-0.7-6.6-4.1-6.6c-7.6,0-10.1,7.6-10.1,15.5v16.6c0,3.7-1.9,5.6-5.6,5.6h-6.4
			c-3.7,0-5.6-1.9-5.6-5.6v-25.5c0-3.9-0.7-6.6-4.1-6.6c-8.1,0-10.1,8.3-10.1,15.5v16.6c0,3.7-1.9,5.6-5.6,5.6h-6.4
			c-3.7,0-5.6-1.9-5.6-5.6V180.5z"/>
		<path class="st4" d="M341.3,180.5c0-3.7,1.9-5.6,5.6-5.6h6.4c3.7,0,5.6,1.9,5.6,5.6v41.3c0,3.7-1.9,5.6-5.6,5.6h-6.4
			c-3.7,0-5.6-1.9-5.6-5.6V180.5z M341.5,162.7v-2.5c0-3.7,1.9-5.6,5.6-5.6h6c3.7,0,5.6,1.9,5.6,5.6v2.5c0,3.7-1.9,5.6-5.6,5.6h-6
			C343.4,168.3,341.5,166.4,341.5,162.7z"/>
		<path class="st4" d="M390.8,173.7c10.6,0,13.8,5.2,13.8,5.2h0.2c0,0-0.1-1-0.1-2.3v-16.4c0-3.7,1.9-5.6,5.6-5.6h6.4
			c3.7,0,5.6,1.9,5.6,5.6v61.7c0,3.7-1.9,5.6-5.6,5.6h-5.3c-3.7,0-5.6-1.7-5.6-5.1v-0.6c0-0.2,0.1-0.7,0.1-0.7h-0.2
			c0,0-4.4,7.6-15.2,7.6c-14.3,0-23.7-11.2-23.7-27.5C366.8,184.5,376.8,173.7,390.8,173.7z M394.9,214.1c5.3,0,10.3-3.9,10.3-13
			c0-6.3-3.4-12.5-10.3-12.5c-5.5,0-10.3,4.5-10.3,12.5C384.6,209,388.8,214.1,394.9,214.1z"/>
		<path class="st4" d="M459.2,194.7h1.5v-0.9c0-4.4-3.6-5.8-7.4-5.8c-3.4,0-6.8,1.1-9.5,2.3c-3.4,1.4-5.9,0.8-7.5-2.4l-1.2-2.5
			c-1.5-3.2-0.9-5.9,2.2-7.5c4-1.8,10.1-4.1,17.6-4.1c14.5,0,23.5,8.1,23.5,21.4v26.7c0,3.7-1.9,5.6-5.6,5.6h-4.9
			c-3.7,0-5.6-1.8-5.6-5.7v-0.4c0-0.6,0.1-1,0.1-1h-0.2c0,0-5,8.4-15.5,8.4c-10.1,0-17.1-6.9-17.1-16
			C429.5,198.6,446.2,194.7,459.2,194.7z M451.9,215.5c5.1,0,9-5,9-9.3v-1.4h-1.6c-5.4,0-12.3,1.4-12.3,6.2
			C446.9,213.5,448.7,215.5,451.9,215.5z"/>
		<path class="st4" d="M514.8,173.5c15.6,0,24.3,11,24.3,25.1c0,2.8-2.4,5.8-5.9,5.8h-27.6c1.3,6.4,6.6,9.4,12.2,9.4
			c3.6,0,6.9-1.1,9.6-2.4c3.4-1.5,5.8-1.1,7.5,2.1l1.4,2.7c1.6,3.2,1.1,5.9-1.9,7.7c-3.8,2.1-10,4.7-18.1,4.7
			c-18.8,0-28.9-13.6-28.9-27.5C487.5,185.5,497.9,173.5,514.8,173.5z M521.7,194.3c0-4.3-2.8-7.9-7.2-7.9c-5.1,0-7.5,3.7-8.5,7.9
			H521.7z"/>
		<path class="st4" d="M546.6,180.3c0-3.7,1.9-5.6,5.6-5.6h5.7c3.7,0,5.5,1.9,5.5,5.6v0.9c0,0.5-0.1,1.3-0.1,1.3h0.2
			c2.4-4.1,7.4-9.1,16.7-9.1c10.6,0,18.9,4.9,18.9,19.7v28.5c0,3.7-1.9,5.6-5.6,5.6h-6.4c-3.7,0-5.6-1.9-5.6-5.6v-25.2
			c0-4.9-1.9-6.9-5.8-6.9c-7.9,0-11.4,6.5-11.4,14v18.2c0,3.7-1.9,5.6-5.6,5.6h-6.4c-3.7,0-5.6-1.9-5.6-5.6V180.3z"/>
		<g>
			<path class="st4" d="M611.2,207.8v-44.1c0-3.7,1.9-5.6,5.6-5.6h6.4c3.7,0,5.6,1.9,5.6,5.6V207"/>
			<path class="st4" d="M628.8,177.5v44.1c0,3.7-1.9,5.6-5.6,5.6h-6.4c-3.7,0-5.6-1.9-5.6-5.6v-43.3"/>
		</g>
		<path class="st4" d="M666.9,194.5h1.5v-0.9c0-4.4-3.6-5.8-7.4-5.8c-3.4,0-6.8,1.1-9.5,2.3c-3.4,1.4-5.9,0.8-7.5-2.4l-1.2-2.5
			c-1.5-3.2-0.9-5.9,2.2-7.5c4-1.8,10.1-4.1,17.6-4.1c14.5,0,23.5,8.1,23.5,21.4v26.7c0,3.7-1.9,5.6-5.6,5.6h-4.9
			c-3.7,0-5.6-1.8-5.6-5.7v-0.4c0-0.6,0.1-1,0.1-1h-0.2c0,0-5,8.4-15.5,8.4c-10.1,0-17.1-6.9-17.1-16
			C637.2,198.3,653.9,194.5,666.9,194.5z M659.7,215.3c5.1,0,9-5,9-9.3v-1.4H667c-5.4,0-12.3,1.4-12.3,6.2
			C654.7,213.2,656.4,215.3,659.7,215.3z"/>
		<path class="st4" d="M696.6,163.7c0-3.7,1.9-5.6,5.6-5.6h6.6c3.7,0,5.6,1.9,5.6,5.6v36.7c0,7.7,5,11.7,12.6,11.7
			c7.6,0,12.6-4.1,12.6-11.7v-36.7c0-3.7,1.9-5.6,5.6-5.6h6.6c3.7,0,5.6,1.9,5.6,5.6v36.7c0,16.4-12,28-30.4,28
			c-18.6,0-30.6-11.6-30.6-28V163.7z"/>
	</g>
	<g>
		<g>
			<path class="st4" d="M98.3,166.7h-2.6c-1.8,0-3.3,1.5-3.3,3.3c0,1.8,1.5,3.3,3.3,3.3h2.6c1.8,0,3.3-1.5,3.3-3.3
				C101.6,168.2,100.1,166.7,98.3,166.7z"/>
		</g>
		<g>
			<path class="st4" d="M151.9,153.3H114c-1.8,0-3.3,1.5-3.3,3.3c0,1.8,1.5,3.3,3.3,3.3h1.3v0.1h0.9c1.8,0,3.3,1.5,3.3,3.3
				c0,1.8-1.5,3.3-3.3,3.3h-0.9v0.1h-7.7c-1.8,0-3.3,1.5-3.3,3.3c0,1.8,1.5,3.3,3.3,3.3h3.7v0c1.7,0.1,3.1,1.5,3.1,3.3
				c0,1.8-1.4,3.2-3.1,3.3v0h-0.3c-1.8,0-3.3,1.5-3.3,3.3c0,1.8,1.5,3.3,3.3,3.3c3-0.2,2.4,4.5,2.4,6.2c0.5-8.4,8.5-20.7,14.9-27.1
				C135.2,158.9,142.8,153.3,151.9,153.3z"/>
		</g>
	</g>
</g>
</svg>
